<svg width="386" height="190" viewBox="0 0 386 190" fill="none" xmlns="http://www.w3.org/2000/svg">
<path d="M54.9123 55.85C54.0789 57.3516 53.2179 58.8462 52.4121 60.3615C46.1511 72.1257 41.2333 84.3307 40.8132 97.872C40.207 117.344 53.0457 131.298 72.4485 133.006C86.8025 134.274 100.468 131.167 114.147 127.565C149.102 118.356 184.085 109.23 219.054 100.062C219.894 99.8419 220.707 99.5388 221.54 98.7261C218.668 98.7261 215.789 98.7261 212.917 98.7261C206.793 98.7261 200.67 98.671 194.547 98.7536C192.57 98.7812 191.861 98.12 191.702 96.095C190.903 86.0113 189.96 75.9415 189.037 65.8717C188.927 64.6801 188.651 63.5092 188.279 61.3051C185.221 69.9836 182.494 77.6979 179.78 85.4121C178.457 89.1797 177.218 92.9748 175.771 96.6942C175.441 97.5345 174.435 98.6916 173.712 98.7123C166.955 98.8638 160.198 98.8018 152.987 98.8018C156.017 90.3644 158.876 82.3402 161.768 74.3367C170.247 50.8702 178.781 27.4313 187.15 3.9304C188.135 1.16842 189.43 0.121488 192.377 0.231691C198.253 0.458986 204.142 0.30057 210.678 0.30057C207.579 8.84134 204.665 16.8724 201.759 24.9035C201.931 25.0068 202.103 25.117 202.268 25.2203C206.47 20.2818 210.671 15.3502 214.866 10.4117C215.947 9.13751 217.228 7.98727 218.076 6.57528C225.315 -1.27672 222.511 0.0319497 231.761 0.155929C250.778 0.555416 269.802 0.30057 288.826 0.314346C290.238 0.314346 291.65 0.465874 293.558 0.576077C291.554 6.27222 289.777 11.6033 287.71 16.8242C287.435 17.5336 285.72 17.9951 284.666 18.0158C278.433 18.126 272.199 18.0158 265.966 18.1191C264.891 18.1398 263.135 18.5393 262.859 19.2349C260.352 25.4752 258.107 31.8188 255.6 38.6307C262.529 38.6307 268.921 38.6307 276.118 38.6307C273.894 44.7608 271.937 50.3399 269.775 55.8363C269.554 56.3873 268.08 56.6766 267.185 56.6903C261.957 56.7661 256.716 56.6352 251.495 56.8074C250.406 56.8419 248.705 57.5995 248.388 58.4398C245.84 65.2655 243.56 72.1946 241.081 79.4405C249.725 79.4405 257.935 79.4405 266.606 79.4405C265.649 82.4504 264.795 85.1091 263.782 88.2912C304.51 77.6083 344.761 67.0426 385.013 56.4837C385.103 56.7317 385.192 56.9796 385.282 57.2207C382.12 58.5913 378.98 60.0033 375.804 61.3327C284.019 99.7799 192.267 138.248 100.488 176.661C85.8037 182.804 70.6783 187.619 54.7883 189.382C45.8205 190.374 36.8114 190.402 28.0158 187.729C10.0802 182.295 -0.375401 168.044 0.0103112 149.378C0.347809 133.213 6.48477 118.921 14.5365 105.297C23.5319 90.082 35.055 76.8163 46.8055 63.7296C49.2988 60.9538 51.8335 58.2263 54.3544 55.4781C54.5335 55.6021 54.7264 55.7261 54.9123 55.85ZM212.724 93.3537C212.985 93.4225 213.247 93.4914 213.502 93.5603C224.447 63.2337 235.398 32.9001 246.343 2.57352C245.509 2.77326 245.11 3.15208 244.765 3.57912C233.318 17.6025 221.816 31.5777 210.506 45.7113C209.273 47.2542 208.398 49.7131 208.57 51.6416C209.783 65.5617 211.305 79.4542 212.724 93.3537Z" fill="black"/>
<path d="M147.111 0.293692C141.539 15.6533 136.27 30.1175 131.042 44.6024C124.912 61.6013 118.782 78.6002 112.755 95.6404C111.888 98.0924 110.737 99.0705 108.003 98.9672C101.79 98.7192 95.5637 98.8914 88.9653 98.8914C88.9653 84.9644 88.9653 71.2579 88.9653 57.5513C88.7173 57.51 88.4694 57.4618 88.2214 57.4204C85.7556 64.2393 83.2829 71.0512 80.8171 77.8701C78.5993 84.0208 76.4778 90.2129 74.1085 96.3016C73.6952 97.3692 72.2694 98.733 71.2707 98.7674C64.9478 98.9947 58.6111 98.8845 51.7578 98.8845C52.2262 97.2039 52.5155 95.847 52.9769 94.5659C63.9146 64.3357 74.9143 34.1262 85.7556 3.85464C86.7681 1.03068 88.1456 0.128388 91.0316 0.238591C96.59 0.45211 102.162 0.369457 107.721 0.273029C110.124 0.231703 111.027 1.01002 110.992 3.53781C110.861 13.6628 110.937 23.7946 110.937 33.9195C110.937 34.9734 110.937 36.0272 110.937 37.081C111.171 37.1292 111.399 37.1774 111.633 37.2325C113.155 33.1412 114.698 29.0499 116.199 24.9517C118.837 17.7747 121.599 10.639 124.017 3.38628C124.857 0.872261 126.125 0.197265 128.577 0.252367C134.562 0.390121 140.547 0.293692 147.111 0.293692Z" fill="black"/>
<path d="M178.945 0.293764C177.148 5.42511 175.66 9.80571 174.096 14.1519C164.33 41.2481 154.515 68.3238 144.817 95.4407C143.901 97.9961 142.75 99.0912 139.871 98.9672C133.886 98.7055 127.887 98.8915 121.398 98.8915C121.777 97.5346 121.998 96.5152 122.349 95.5372C133.445 64.811 144.583 34.0918 155.61 3.33814C156.416 1.08585 157.463 0.190448 159.866 0.24555C165.955 0.390192 172.051 0.293764 178.945 0.293764Z" fill="black"/>
</svg>
